#!OML:ASF F:\VICON\USERDATA\INSTALL\rory3\rory3.ASF
:FULLY-SPECIFIED
:DEGREES
1745
root -2.33093 17.7376 0.540791 0.453708 32.6711 -0.729713
lowerback 17.6889 -5.32689 -6.97761
upperback 3.62495 -8.09186 1.78177
thorax -4.67815 -3.88647 7.48147
lowerneck -18.4747 -3.61375 -11.7559
upperneck 25.0245 -3.26759 6.61934
head 11.5453 -1.75584 3.94166
rclavicle 6.95746e-016 1.39149e-014
rhumerus -49.2277 -7.15828 -55.8258
rradius 55.0642
rwrist 7.878
rhand -28.4961 11.5926
rfingers 7.12502
rthumb -1.86505 -18.379
lclavicle 6.95746e-016 1.39149e-014
lhumerus -10.7673 8.60986 72.7862
lradius 105.57
lwrist 14.7571
lhand -14.7609 11.4943
lfingers 7.12502
lthumb 11.3953 41.1647
rfemur -60.8296 -1.27447 25.3885
rtibia 101.058
rfoot -9.20814 -13.929
rtoes 14.7446
lfemur -15.0576 1.60058 -20.5121
ltibia 28.9853
lfoot -10.0206 -15.941
ltoes -0.514708
1746
root -2.29691 17.7383 0.562033 0.592429 31.7459 -0.399403
lowerback 17.0606 -5.10236 -6.89565
upperback 3.511 -7.75774 1.72216
thorax -4.54309 -3.73059 7.24725
lowerneck -18.4644 -3.63577 -11.8955
upperneck 25.128 -3.26549 6.64174
head 11.5866 -1.76771 3.97704
rclavicle -4.19436e-014 2.50469e-014
rhumerus -48.5155 -6.6868 -55.7678
rradius 55.8023
rwrist 7.96473
rhand -28.5506 11.4235
rfingers 7.12502
rthumb -1.91769 -18.5476
lclavicle -4.19436e-014 2.50469e-014
lhumerus -12.4097 8.47501 72.8848
lradius 104.383
lwrist 14.3615
lhand -14.9447 11.6196
lfingers 7.12502
lthumb 11.2181 41.2996
rfemur -58.4698 -2.40307 25.1362
rtibia 99.1589
rfoot -10.2886 -14.716
rtoes 13.4646
lfemur -14.5014 1.48319 -20.8546
ltibia 28.5448
lfoot -10.1782 -14.9398
ltoes -0.749867
1747
root -2.26492 17.7495 0.585082 0.716771 30.8527 -0.147815
lowerback 16.3504 -4.89625 -6.73501
upperback 3.43112 -7.42719 1.6704
thorax -4.33235 -3.58183 6.97032
lowerneck -18.4731 -3.68384 -11.9397
upperneck 25.1833 -3.29305 6.5457
head 11.613 -1.79734 3.94503
rclavicle -6.85807e-015 -6.36111e-015
rhumerus -47.7924 -6.18472 -55.7742
rradius 56.6233
rwrist 7.90958
rhand -28.5168 11.2195
rfingers 7.12502
rthumb -1.885 -18.7519
lclavicle -6.85807e-015 -6.36111e-015
lhumerus -13.931 8.34917 73.0093
lradius 103.096
lwrist 14.1014
lhand -14.8937 11.7034
lfingers 7.12502
lthumb 11.2673 41.3808
rfemur -56.1186 -3.51153 24.8884
rtibia 97.1197
rfoot -11.278 -15.5911
rtoes 12.1007
lfemur -13.9567 1.33857 -21.1268
ltibia 28.0324
lfoot -10.2605 -13.9292
ltoes -0.827384
1748
root -2.23565 17.7694 0.609654 0.821366 29.9665 0.148557
lowerback 15.7484 -4.67202 -6.62398
upperback 3.28324 -7.09246 1.59528
thorax -4.24555 -3.42102 6.71822
lowerneck -18.3668 -3.72202 -11.9773
upperneck 25.2627 -3.33825 6.49922
head 11.6281 -1.83015 3.92889
rclavicle -5.75482e-014 2.44505e-014
rhumerus -47.2287 -5.6375 -55.8063
rradius 57.5165
rwrist 7.83515
rhand -28.5176 10.9989
rfingers 7.12502
rthumb -1.8858 -18.9725
lclavicle -5.75482e-014 2.44505e-014
lhumerus -15.5148 8.17371 73.1181
lradius 101.701
lwrist 13.9779
lhand -15.1462 11.5233
lfingers 7.12502
lthumb 11.0238 41.2138
rfemur -53.7273 -4.57378 24.5356
rtibia 94.9913
rfoot -12.204 -16.4831
rtoes 12.9214
lfemur -13.4016 1.2888 -21.4314
ltibia 27.5687
lfoot -10.3219 -13.0439
ltoes -0.951979
1749
root -2.20745 17.7732 0.635398 1.0801 29.1012 0.645559
lowerback 15.1574 -4.44058 -6.68033
upperback 3.04425 -6.78145 1.4787
thorax -4.23917 -3.26366 6.53023
lowerneck -18.1352 -3.71004 -11.9489
upperneck 25.3518 -3.33632 6.40847
head 11.6144 -1.84269 3.89266
rclavicle -1.32689e-014 2.38542e-015
rhumerus -46.668 -5.07993 -55.8
rradius 58.2897
rwrist 7.81167
rhand -28.4917 10.8233
rfingers 7.12502
rthumb -1.86084 -19.1484
lclavicle -1.32689e-014 2.38542e-015
lhumerus -17.2225 7.93013 73.1851
lradius 100.3
lwrist 13.9489
lhand -15.464 11.4723
lfingers 7.12502
lthumb 10.7172 41.1789
rfemur -51.5513 -5.77573 23.9271
rtibia 92.8902
rfoot -13.0695 -17.2415
rtoes 14.3406
lfemur -12.9702 1.34379 -21.9414
ltibia 27.1871
lfoot -10.4119 -12.3443
ltoes -0.994882
1750
root -2.18225 17.7664 0.663639 1.33348 28.115 0.945931
lowerback 14.3831 -4.1901 -6.58683
upperback 2.87801 -6.40388 1.40363
thorax -4.07474 -3.08501 6.27294
lowerneck -18.095 -3.71486 -11.9756
upperneck 25.4256 -3.33676 6.38936
head 11.6354 -1.84993 3.89192
rclavicle 7.70788e-014 -2.68359e-014
rhumerus -45.9801 -4.5825 -55.8649
rradius 59.0541
rwrist 7.57617
rhand -28.3267 10.6696
rfingers 7.12502
rthumb -1.70142 -19.3033
lclavicle 7.70788e-014 -2.68359e-014
lhumerus -18.8387 7.70512 73.2031
lradius 98.887
lwrist 13.9615
lhand -15.4869 11.5075
lfingers 7.12502
lthumb 10.6952 41.2153
rfemur -49.5664 -6.86527 23.472
rtibia 90.7232
rfoot -13.7468 -17.9917
rtoes 15.5597
lfemur -12.7079 1.57252 -22.2598
ltibia 26.9057
lfoot -10.559 -11.6572
ltoes -1.15852
1751
root -2.16089 17.763 0.69216 1.45963 26.9842 0.987457
lowerback 13.6532 -3.89923 -6.32462
upperback 2.6932 -5.94834 1.40717
thorax -3.96953 -2.86553 6.00594
lowerneck -18.0954 -3.78188 -12.1062
upperneck 25.5781 -3.39591 6.39089
head 11.7047 -1.8923 3.90943
rclavicle -2.67117e-014 -1.20265e-014
rhumerus -45.2974 -4.01243 -55.9306
rradius 59.7584
rwrist 7.1849
rhand -27.9486 10.4384
rfingers 7.12502
rthumb -1.33631 -19.5372
lclavicle -2.67117e-014 -1.20265e-014
lhumerus -20.4962 7.58327 73.2558
lradius 97.4458
lwrist 13.8253
lhand -15.4001 11.4681
lfingers 7.12502
lthumb 10.7788 41.1715
rfemur -47.5845 -7.69826 23.2542
rtibia 88.4506
rfoot -14.4282 -18.7134
rtoes 16.7504
lfemur -12.4973 1.94442 -22.306
ltibia 26.7347
lfoot -10.7589 -10.9686
ltoes -1.58088
1752
root -2.14289 17.759 0.720814 1.47542 25.9 1.14232
lowerback 13.139 -3.58674 -6.1936
upperback 2.51037 -5.49802 1.3756
thorax -3.96356 -2.64185 5.801
lowerneck -17.9161 -3.86302 -12.183
upperneck 25.658 -3.51113 6.38151
head 11.715 -1.9569 3.90327
rclavicle -8.44586e-014 8.59744e-015
rhumerus -44.6753 -3.44229 -55.9937
rradius 60.3952
rwrist 7.12551
rhand -27.9371 10.3884
rfingers 7.12502
rthumb -1.32518 -19.5872
lclavicle -8.44586e-014 8.59744e-015
lhumerus -22.1397 7.47062 73.3163
lradius 95.9658
lwrist 13.5284
lhand -15.2808 11.4282
lfingers 7.12502
lthumb 10.8939 41.1256
rfemur -45.4675 -8.48723 22.8588
rtibia 86.1357
rfoot -15.1749 -19.2394
rtoes 17.8798
lfemur -12.1172 2.29594 -22.4501
ltibia 26.5948
lfoot -11.0828 -10.2456
ltoes -2.88524
1753
root -2.12892 17.7595 0.752048 1.35842 24.9082 1.30816
lowerback 12.7794 -3.26996 -6.08331
upperback 2.39047 -5.05235 1.31594
thorax -3.97161 -2.4206 5.59155
lowerneck -17.8539 -3.8954 -12.1447
upperneck 25.7643 -3.58545 6.39758
head 11.7511 -1.98756 3.8944
rclavicle 2.66076e-014 1.55301e-014
rhumerus -44.0617 -3.05366 -56.0788
rradius 61.0674
rwrist 7.15043
rhand -28.0788 10.6531
rfingers 7.12502
rthumb -1.46202 -19.3216
lclavicle 2.66076e-014 1.55301e-014
lhumerus -23.6847 7.30744 73.3506
lradius 94.4963
lwrist 13.1413
lhand -15.1555 11.1939
lfingers 7.12502
lthumb 11.0148 40.8849
rfemur -43.2616 -9.32065 22.3997
rtibia 83.7705
rfoot -15.881 -19.7518
rtoes 18.3394
lfemur -11.5838 2.45486 -22.5835
ltibia 26.449
lfoot -11.4081 -9.44663
ltoes -4.24666
1754
root -2.11281 17.7612 0.783673 1.29401 23.9013 1.61556
lowerback 12.4278 -2.95958 -6.04376
upperback 2.29066 -4.62499 1.23544
thorax -3.95262 -2.20924 5.40405
lowerneck -17.9863 -3.92482 -12.095
upperneck 25.9625 -3.5874 6.24931
head 11.8517 -2.00439 3.83378
rclavicle -1.02337e-013 3.08116e-015
rhumerus -43.4048 -2.59275 -56.1875
rradius 61.8775
rwrist 6.81001
rhand -27.8461 10.8374
rfingers 7.12502
rthumb -1.23729 -19.1388
lclavicle -1.02337e-013 3.08116e-015
lhumerus -25.2805 7.2484 73.3759
lradius 93.1786
lwrist 12.7454
lhand -15.0262 11.1621
lfingers 7.12502
lthumb 11.1394 40.8464
rfemur -41.1024 -10.1593 21.7214
rtibia 81.386
rfoot -16.6176 -20.0463
rtoes 18.8834
lfemur -11.0382 2.50088 -22.8754
ltibia 26.2847
lfoot -11.644 -8.53668
ltoes -5.21765
1755
root -2.09648 17.7568 0.810959 1.17745 22.83 1.80581
lowerback 12.1293 -2.65826 -5.83525
upperback 2.20659 -4.19014 1.15426
thorax -3.95707 -1.99531 5.12515
lowerneck -18.0603 -3.98461 -12.0949
upperneck 26.0573 -3.65099 6.19681
head 11.9101 -2.04063 3.80566
rclavicle 2.49723e-014 9.64106e-015
rhumerus -42.6811 -2.10323 -56.4072
rradius 62.6875
rwrist 6.30889
rhand -27.6856 10.6835
rfingers 7.12502
rthumb -1.08222 -19.2935
lclavicle 2.49723e-014 9.64106e-015
lhumerus -26.7899 7.30577 73.3455
lradius 91.9069
lwrist 12.2982
lhand -15.0249 11.2647
lfingers 7.12502
lthumb 11.1408 40.9489
rfemur -38.977 -10.8417 21.1325
rtibia 78.9663
rfoot -17.0776 -20.2407
rtoes 18.7744
lfemur -10.5269 2.54915 -23.0606
ltibia 26.1826
lfoot -11.8588 -7.58291
ltoes -6.25565
1756
root -2.08464 17.7557 0.838325 1.05577 21.6408 1.78328
lowerback 11.7768 -2.35486 -5.4405
upperback 2.10597 -3.7267 1.09491
thorax -3.95816 -1.76941 4.7595
lowerneck -18.0177 -4.01614 -12.0819
upperneck 26.0086 -3.70999 6.2099
head 11.8889 -2.06398 3.79789
rclavicle 2.127e-014 1.09332e-015
rhumerus -41.8738 -1.63024 -56.7397
rradius 63.3215
rwrist 6.09867
rhand -27.7682 10.3209
rfingers 7.12502
rthumb -1.16206 -19.6557
lclavicle 2.127e-014 1.09332e-015
lhumerus -28.2255 7.44385 73.2415
lradius 90.5276
lwrist 11.8081
lhand -15.2034 11.3232
lfingers 7.12502
lthumb 10.9686 41.0166
rfemur -36.9663 -11.2927 20.801
rtibia 76.4816
rfoot -17.1392 -20.4455
rtoes 17.608
lfemur -10.173 2.71517 -23.0355
ltibia 26.2271
lfoot -12.2999 -6.55353
ltoes -7.45546
